<svg id="Capa_1" enable-background="new 0 0 512 512" height="512" viewBox="0 0 512 512" width="512" xmlns="http://www.w3.org/2000/svg" xmlns:xlink="http://www.w3.org/1999/xlink"><linearGradient id="SVGID_1_" gradientUnits="userSpaceOnUse" x1="256" x2="256" y1="429.164" y2="82.836"><stop offset="0" stop-color="#ffe59a"/><stop offset="1" stop-color="#ffffd5"/></linearGradient><linearGradient id="SVGID_2_" gradientUnits="userSpaceOnUse" x1="256" x2="256" y1="512" y2="0"><stop offset="0" stop-color="#fd5900"/><stop offset="1" stop-color="#ffde00"/></linearGradient><g><g><g><path d="m256 151c-57.891 0-105 47.109-105 105s47.109 105 105 105 105-47.109 105-105-47.109-105-105-105zm15-15v-61c0-8.291-6.709-15-15-15s-15 6.709-15 15v61c0 8.291 6.709 15 15 15s15-6.709 15-15zm-30 240v61c0 8.291 6.709 15 15 15s15-6.709 15-15v-61c0-8.291-6.709-15-15-15s-15 6.709-15 15zm-80.449-194.253c5.86 5.859 15.352 5.859 21.211 0s5.859-15.352 0-21.211l-72.422-72.422c-5.859-5.859-15.352-5.859-21.211 0s-5.859 15.352 0 21.211zm190.898 148.506c-5.859-5.859-15.352-5.859-21.211 0s-5.859 15.352 0 21.211l72.422 72.422c5.86 5.859 15.352 5.859 21.211 0s5.859-15.352 0-21.211zm-215.449-89.253h-61c-8.291 0-15 6.709-15 15s6.709 15 15 15h61c8.291 0 15-6.709 15-15s-6.709-15-15-15zm301 0h-61c-8.291 0-15 6.709-15 15s6.709 15 15 15h61c8.291 0 15-6.709 15-15s-6.709-15-15-15zm-276.449 89.253-72.422 72.422c-5.859 5.859-5.859 15.352 0 21.211 5.86 5.859 15.352 5.859 21.211 0l72.422-72.422c5.859-5.859 5.859-15.352 0-21.211s-15.352-5.859-21.211 0zm190.898-148.506 72.422-72.422c5.859-5.859 5.859-15.352 0-21.211s-15.352-5.859-21.211 0l-72.422 72.422c-5.859 5.859-5.859 15.352 0 21.211 5.86 5.859 15.352 5.859 21.211 0z" fill="url(#SVGID_1_)"/></g></g><g><g><path d="m256 121c-74.399 0-135 60.599-135 135 0 74.399 60.601 135 135 135s135-60.601 135-135c0-74.401-60.601-135-135-135zm-60 180c-8.401 0-15-6.601-15-15 0-8.401 6.599-15 15-15s15 6.599 15 15c0 8.399-6.599 15-15 15zm0-60c-8.401 0-15-6.601-15-15 0-8.401 6.599-15 15-15s15 6.599 15 15c0 8.399-6.599 15-15 15zm60 90c-8.401 0-15-6.601-15-15 0-8.401 6.599-15 15-15s15 6.599 15 15c0 8.399-6.599 15-15 15zm0-60c-8.401 0-15-6.601-15-15 0-8.401 6.599-15 15-15s15 6.599 15 15c0 8.399-6.599 15-15 15zm0-60c-8.401 0-15-6.601-15-15 0-8.401 6.599-15 15-15s15 6.599 15 15c0 8.399-6.599 15-15 15zm60 90c-8.401 0-15-6.601-15-15 0-8.401 6.599-15 15-15s15 6.599 15 15c0 8.399-6.599 15-15 15zm0-60c-8.401 0-15-6.601-15-15 0-8.401 6.599-15 15-15s15 6.599 15 15c0 8.399-6.599 15-15 15zm-60-151c24.814 0 45-20.186 45-45s-20.186-45-45-45-45 20.186-45 45 20.186 45 45 45zm0 332c-24.814 0-45 20.186-45 45s20.186 45 45 45 45-20.186 45-45-20.186-45-45-45zm-146.66-312.689c17.52-17.534 17.52-46.069 0-63.604v-.015c-17.549-17.534-46.055-17.563-63.662 0-17.549 17.549-17.549 46.084 0 63.633 17.535 17.565 46.151 17.555 63.662-.014zm293.32 293.378c-17.52 17.534-17.52 46.069 0 63.618 17.614 17.584 46.1 17.533 63.662 0 17.549-17.549 17.549-46.084 0-63.633-17.549-17.577-46.172-17.563-63.662.015zm-312.66-146.689c0-24.814-20.186-45-45-45s-45 20.186-45 45 20.186 45 45 45 45-20.186 45-45zm377-45c-24.814 0-45 20.186-45 45s20.186 45 45 45 45-20.186 45-45-20.186-45-45-45zm-421.322 191.675c-17.549 17.549-17.549 46.084 0 63.633 17.535 17.564 46.151 17.555 63.662-.015 17.52-17.534 17.52-46.069 0-63.618-17.549-17.534-46.055-17.564-63.662 0zm420.644-293.35c17.549-17.549 17.549-46.084 0-63.633-17.607-17.578-46.113-17.549-63.662 0v.015c-17.52 17.534-17.52 46.069 0 63.618 17.614 17.585 46.1 17.533 63.662 0z" fill="url(#SVGID_2_)"/></g></g></g></svg>